<?xml version="1.0" standalone="no"?>
<!DOCTYPE svg PUBLIC "-//W3C//DTD SVG 20010904//EN"
 "http://www.w3.org/TR/2001/REC-SVG-20010904/DTD/svg10.dtd">
<svg version="1.0" xmlns="http://www.w3.org/2000/svg"
 width="460.000000pt" height="460.000000pt" viewBox="0 0 460.000000 460.000000"
 preserveAspectRatio="xMidYMid meet">
<metadata>
Created by potrace 1.14, written by Peter Selinger 2001-2017
</metadata>
<g transform="translate(0.000000,460.000000) scale(0.100000,-0.100000)"
fill="#000000" stroke="none">
<path d="M4067 4205 c-26 -7 -78 -31 -115 -53 -40 -24 -70 -36 -73 -30 -6 10
-69 -28 -69 -41 0 -4 -9 -12 -19 -18 -16 -10 -18 -9 -14 8 8 30 -6 23 -77 -41
-37 -32 -70 -57 -73 -54 -3 3 -35 -15 -70 -40 -35 -25 -67 -43 -70 -40 -6 6
-131 -82 -190 -133 -61 -54 -57 -43 21 70 18 27 32 51 30 53 -7 6 -68 -40 -68
-52 0 -6 -15 -17 -34 -26 -18 -9 -66 -53 -107 -98 -77 -84 -311 -300 -345
-317 -40 -22 -105 -24 -211 -9 -256 36 -458 48 -648 36 -99 -6 -197 -15 -219
-20 -21 -5 -48 -5 -60 -1 -12 5 -31 4 -44 -2 -17 -8 -29 -8 -42 0 -9 7 -35 15
-56 19 -22 3 -43 10 -49 14 -5 4 -32 13 -60 20 -68 17 -207 77 -278 118 -32
18 -81 44 -110 58 -29 13 -79 41 -112 62 -33 21 -85 51 -115 66 -30 16 -66 35
-80 42 -46 26 -159 84 -165 84 -12 0 -3 -23 20 -48 14 -15 25 -30 25 -33 0 -9
-286 88 -358 122 -80 37 -101 33 -41 -9 24 -17 60 -45 79 -62 33 -29 33 -31
10 -26 -45 9 -154 25 -213 31 -70 6 -77 -10 -11 -27 28 -8 53 -22 64 -38 21
-30 80 -169 80 -188 0 -8 20 -45 45 -82 43 -65 99 -174 100 -195 0 -5 12 -23
28 -38 15 -16 25 -33 22 -37 -3 -5 10 -21 30 -37 38 -30 46 -47 18 -36 -17 7
-17 5 1 -21 10 -16 19 -38 20 -51 3 -19 44 -64 116 -124 16 -13 20 -20 10 -21
-8 0 4 -19 30 -46 25 -26 39 -44 33 -40 -26 15 -12 -12 22 -40 19 -16 37 -35
40 -44 5 -12 4 -13 -6 -2 -7 6 -18 12 -23 12 -6 0 8 -18 29 -40 21 -22 33 -40
27 -40 -7 0 5 -27 28 -59 94 -139 109 -199 70 -276 -11 -22 -20 -47 -20 -56 0
-8 -17 -33 -37 -55 -65 -67 -67 -72 -36 -66 l28 5 -33 -31 c-18 -17 -37 -32
-42 -34 -4 -2 -24 -23 -44 -48 -25 -31 -31 -47 -23 -52 13 -8 -6 -26 -55 -53
-16 -9 -28 -20 -28 -25 0 -6 -6 -10 -12 -10 -7 0 -26 -11 -43 -24 l-29 -23 24
-8 c35 -11 104 -61 203 -147 l41 -36 -49 5 -50 4 25 -20 c14 -11 57 -42 95
-68 39 -26 81 -56 95 -66 l25 -19 -35 7 c-19 3 -44 9 -55 11 -11 3 -4 -5 16
-18 69 -45 158 -121 153 -130 -3 -5 -13 -7 -21 -4 -8 3 -13 1 -11 -4 2 -6 43
-35 92 -63 101 -59 119 -80 58 -66 -22 5 -52 13 -67 19 -54 20 -35 2 38 -38
41 -23 77 -48 80 -56 3 -8 23 -25 44 -36 76 -42 150 -92 227 -153 79 -62 148
-128 141 -135 -2 -2 -66 19 -142 46 -208 75 -358 121 -438 135 -16 3 -38 9
-47 12 -10 4 -18 3 -18 -2 0 -10 50 -37 105 -56 38 -13 304 -123 370 -152 17
-7 43 -17 59 -21 16 -4 41 -13 55 -20 14 -8 31 -14 37 -14 7 0 31 -9 55 -21
25 -11 33 -18 19 -15 -25 5 -121 22 -285 50 -85 15 -164 24 -385 46 -159 16
-401 7 -350 -13 8 -3 134 -22 280 -42 146 -20 308 -45 360 -55 52 -10 176 -33
275 -50 99 -17 184 -35 189 -40 7 -7 -135 -10 -390 -10 -219 -1 -446 -5 -504
-11 -118 -12 -170 -15 -282 -19 -78 -2 -112 -20 -40 -20 20 0 163 -7 317 -15
154 -8 408 -15 565 -15 178 -1 277 -5 265 -10 -11 -5 -63 -26 -115 -46 -98
-38 -117 -45 -212 -87 -71 -31 -173 -101 -182 -123 -4 -11 -2 -15 6 -12 7 3
31 11 53 18 107 34 194 65 227 82 20 10 70 29 110 42 40 13 90 31 111 40 54
23 38 4 -27 -33 -119 -69 -257 -189 -228 -199 13 -4 109 40 184 84 35 20 83
48 108 62 25 13 52 30 60 37 8 8 34 21 58 31 l43 17 29 -34 c16 -19 29 -37 30
-40 0 -4 28 -19 63 -34 34 -16 80 -43 103 -62 45 -36 59 -41 50 -18 -8 23 1
19 48 -20 46 -38 67 -46 45 -18 -8 10 4 4 26 -13 52 -40 70 -50 61 -36 -10 16
7 15 23 -1 11 -10 12 -7 7 13 -6 22 -6 23 5 6 11 -18 12 -18 25 5 l13 24 1
-22 c0 -13 5 -23 10 -23 6 0 10 8 10 18 0 10 6 26 13 36 13 18 14 18 20 2 6
-16 9 -16 22 -2 8 8 15 21 15 29 0 8 12 22 26 32 l27 17 -7 -28 -7 -28 23 19
c13 11 26 24 30 30 4 5 34 39 68 76 l61 67 62 -39 c34 -22 73 -45 87 -52 14
-6 45 -27 70 -45 83 -62 213 -142 229 -142 17 1 0 18 -90 91 -24 20 -73 61
-108 90 -35 30 -83 69 -108 88 -24 18 -42 35 -41 37 4 4 191 -53 233 -71 17
-7 48 -20 69 -29 21 -10 69 -19 105 -22 73 -6 76 -11 -28 46 -20 11 -65 31
-101 44 -36 14 -59 25 -53 26 7 0 30 -7 50 -15 21 -8 67 -21 103 -29 36 -8
108 -25 160 -39 97 -26 299 -62 306 -55 5 6 -200 85 -281 108 -38 11 -99 29
-135 39 -95 27 -171 48 -202 55 -32 7 -39 27 -8 21 11 -2 24 -6 29 -9 8 -5
285 -43 516 -70 148 -18 358 -36 405 -36 153 2 -401 114 -865 175 -66 9 -140
19 -165 22 l-44 6 42 12 c91 27 227 46 393 54 229 11 377 4 537 -25 48 -9 39
10 -15 34 -152 64 -629 78 -873 26 l-25 -6 25 27 c13 14 54 40 90 57 69 34
290 210 290 232 0 7 19 26 43 42 32 22 38 29 24 32 -13 3 8 23 74 73 52 39 85
69 75 69 -26 0 -6 22 55 62 56 36 59 52 4 19 -63 -37 -59 -23 11 43 l69 64
-44 -9 c-24 -5 -48 -12 -53 -15 -4 -3 -8 0 -8 6 0 6 14 19 31 28 30 16 112 65
266 159 39 24 92 51 117 59 25 9 46 20 46 25 0 6 15 16 33 24 23 10 27 14 12
15 -18 0 -18 2 5 20 l25 20 -28 0 c-16 0 -26 4 -22 10 3 5 21 10 38 10 50 0
66 16 26 26 l-34 8 40 12 c22 7 33 13 25 13 -8 1 -35 11 -60 23 -43 20 -44 21
-20 28 24 6 24 7 -17 28 -24 13 -43 28 -43 36 0 7 -11 18 -25 24 -14 7 -28 19
-31 27 -4 8 -11 15 -18 15 -18 1 -89 73 -125 126 -17 27 -39 73 -47 104 -9 30
-20 59 -25 64 -14 16 -10 224 5 301 8 39 17 82 20 98 3 15 20 60 39 100 19 39
38 83 42 97 4 14 28 70 55 125 57 118 74 166 94 260 16 73 50 328 61 453 8 90
26 162 70 272 48 124 50 130 28 129 -10 0 -40 -7 -66 -14z m-3677 -550 c0 -8
-7 -15 -15 -15 -16 0 -20 12 -8 23 11 12 23 8 23 -8z m2835 -175 c3 -5 1 -10
-4 -10 -6 0 -11 5 -11 10 0 6 2 10 4 10 3 0 8 -4 11 -10z m-46 -105 c3 -17 2
-17 -13 -3 -19 20 -21 31 -3 26 6 -3 14 -13 16 -23z m-79 -55 c0 -5 -4 -10 -9
-10 -6 0 -13 5 -16 10 -3 6 1 10 9 10 9 0 16 -4 16 -10z m-222 -42 c-6 -18
-28 -21 -28 -4 0 9 7 16 16 16 9 0 14 -5 12 -12z m-208 -8 c0 -5 -4 -10 -10
-10 -5 0 -10 5 -10 10 0 6 5 10 10 10 6 0 10 -4 10 -10z m310 -10 c0 -5 -4
-10 -10 -10 -5 0 -10 5 -10 10 0 6 5 10 10 10 6 0 10 -4 10 -10z m-125 -30 c3
-5 -1 -10 -9 -10 -9 0 -16 5 -16 10 0 6 4 10 9 10 6 0 13 -4 16 -10z m75 0 c0
-5 -4 -10 -10 -10 -5 0 -10 5 -10 10 0 6 5 10 10 10 6 0 10 -4 10 -10z m60 -4
c0 -3 -4 -8 -10 -11 -5 -3 -10 -1 -10 4 0 6 5 11 10 11 6 0 10 -2 10 -4z m-76
-57 c-7 -11 -34 -12 -34 -1 0 14 11 21 26 15 8 -3 11 -9 8 -14z m106 -74 c0
-8 -4 -15 -9 -15 -13 0 -22 16 -14 24 11 11 23 6 23 -9z m510 -180 c0 -8 -7
-15 -15 -15 -8 0 -15 7 -15 15 0 8 7 15 15 15 8 0 15 -7 15 -15z m-28 -50 c0
-5 -5 -11 -11 -13 -6 -2 -11 4 -11 13 0 9 5 15 11 13 6 -2 11 -8 11 -13z
m-2258 -346 c-3 -5 -10 -7 -15 -3 -5 3 -7 10 -3 15 3 5 10 7 15 3 5 -3 7 -10
3 -15z m6 -79 c0 -5 -4 -10 -10 -10 -5 0 -10 5 -10 10 0 6 5 10 10 10 6 0 10
-4 10 -10z m25 -50 c3 -5 1 -10 -4 -10 -6 0 -11 5 -11 10 0 6 2 10 4 10 3 0 8
-4 11 -10z m1898 -359 c-65 -47 -83 -77 -83 -135 0 -133 -76 -252 -194 -306
-56 -25 -69 -25 -186 0 -51 11 -118 20 -147 20 -29 0 -53 3 -53 8 0 11 129
142 184 187 56 46 65 41 112 -60 l32 -69 10 39 c33 127 40 163 35 187 -5 25 0
29 90 73 80 39 197 81 231 84 5 1 -9 -12 -31 -28z m-1872 -126 c30 -9 78 -27
107 -42 l52 -25 0 -55 c0 -70 18 -143 36 -143 8 0 14 4 14 9 0 14 109 101 127
101 8 0 45 -29 81 -63 l65 -64 -59 -16 c-32 -9 -90 -27 -127 -40 -63 -23 -73
-24 -123 -12 -87 20 -133 65 -173 171 -28 74 -61 152 -79 187 -6 11 19 9 79
-8z m1913 -280 c-4 -8 -10 -15 -15 -15 -5 0 -9 7 -9 15 0 8 7 15 15 15 9 0 12
-6 9 -15z m-44 -135 c0 -5 -4 -10 -10 -10 -5 0 -10 5 -10 10 0 6 5 10 10 10 6
0 10 -4 10 -10z m-1762 -48 c2 -7 -3 -12 -12 -12 -9 0 -16 7 -16 16 0 17 22
14 28 -4z m1622 8 c0 -5 -7 -10 -15 -10 -8 0 -15 5 -15 10 0 6 7 10 15 10 8 0
15 -4 15 -10z m30 -24 c0 -11 -19 -15 -25 -6 -3 5 1 10 9 10 9 0 16 -2 16 -4z
m-1680 -16 c0 -5 -4 -10 -10 -10 -5 0 -10 5 -10 10 0 6 5 10 10 10 6 0 10 -4
10 -10z m64 -5 c-6 -16 -24 -21 -24 -7 0 11 11 22 21 22 5 0 6 -7 3 -15z m81
-25 c3 -5 1 -10 -4 -10 -6 0 -11 5 -11 10 0 6 2 10 4 10 3 0 8 -4 11 -10z
m1455 0 c0 -5 -4 -10 -10 -10 -5 0 -10 5 -10 10 0 6 5 10 10 10 6 0 10 -4 10
-10z m-1450 -50 c0 -5 -5 -10 -11 -10 -5 0 -7 5 -4 10 3 6 8 10 11 10 2 0 4
-4 4 -10z m440 -70 c0 -5 -4 -10 -10 -10 -5 0 -10 5 -10 10 0 6 5 10 10 10 6
0 10 -4 10 -10z m4 -175 c3 -9 0 -15 -9 -15 -16 0 -27 14 -18 24 10 10 21 7
27 -9z m31 -49 c16 -9 22 -17 15 -21 -8 -5 -8 -11 1 -21 18 -22 4 -27 -25 -8
-19 11 -25 22 -21 35 5 14 2 17 -8 13 -8 -3 -18 -1 -22 5 -9 16 28 14 60 -3z
m-65 -90 c0 -3 -4 -8 -10 -11 -5 -3 -10 -1 -10 4 0 6 5 11 10 11 6 0 10 -2 10
-4z m485 -76 c11 -18 -58 -74 -108 -87 -53 -15 -109 -60 -127 -103 l-13 -31
-24 40 c-13 22 -32 42 -41 45 -10 4 -38 19 -63 35 -32 20 -48 38 -56 65 -10
33 -10 36 5 32 9 -3 34 -8 55 -12 37 -6 84 -41 104 -79 11 -18 14 -17 52 27
42 47 63 56 171 72 14 2 28 4 32 5 4 0 10 -4 13 -9z"/>
</g>
</svg>
